<svg xmlns="http://www.w3.org/2000/svg" width="1200" height="750" viewBox="0 0 1200 750" font-family="system-ui, sans-serif">
  <rect width="1200" height="750" fill="#fcfcfd"/>
  <rect width="1200" height="52" fill="#f3f4f8"/>
  <circle cx="26" cy="26" r="5" fill="#e7e8ec"/><circle cx="46" cy="26" r="5" fill="#e7e8ec"/><circle cx="66" cy="26" r="5" fill="#e7e8ec"/>
  <rect x="220" y="14" width="760" height="24" rx="12" fill="#eef0ff"/>
  <rect y="52" width="220" height="698" fill="#f7f8fb"/>
  <rect x="20" y="80" width="120" height="14" rx="7" fill="#4f46e5"/>
  <rect x="20" y="112" width="170" height="10" rx="5" fill="#e7e8ec"/>
  <rect x="20" y="134" width="150" height="10" rx="5" fill="#e7e8ec"/>
  <rect x="20" y="156" width="160" height="10" rx="5" fill="#e7e8ec"/>
  <rect x="20" y="178" width="140" height="10" rx="5" fill="#e7e8ec"/>
  <text x="260" y="100" font-size="22" font-weight="600" fill="#0e1014">Documents</text>
  <rect x="260" y="120" width="300" height="12" rx="6" fill="#c7c9d4"/>
  <rect x="260" y="160" width="900" height="72" rx="10" fill="#fff" stroke="#e7e8ec"/>
  <rect x="284" y="184" width="44" height="24" rx="6" fill="#eef0ff"/>
  <rect x="344" y="184" width="220" height="12" rx="6" fill="#c7c9d4"/>
  <rect x="344" y="204" width="160" height="10" rx="5" fill="#e7e8ec"/>
  <rect x="1080" y="184" width="60" height="24" rx="8" fill="#4f46e5"/>
  <rect x="260" y="248" width="900" height="72" rx="10" fill="#fff" stroke="#e7e8ec"/>
  <rect x="284" y="272" width="44" height="24" rx="6" fill="#eef0ff"/>
  <rect x="344" y="272" width="240" height="12" rx="6" fill="#c7c9d4"/>
  <rect x="344" y="292" width="180" height="10" rx="5" fill="#e7e8ec"/>
  <rect x="1080" y="272" width="60" height="24" rx="8" fill="#4f46e5"/>
  <rect x="260" y="336" width="900" height="72" rx="10" fill="#fff" stroke="#e7e8ec"/>
  <rect x="284" y="360" width="44" height="24" rx="6" fill="#eef0ff"/>
  <rect x="344" y="360" width="200" height="12" rx="6" fill="#c7c9d4"/>
  <rect x="344" y="380" width="150" height="10" rx="5" fill="#e7e8ec"/>
  <rect x="1080" y="360" width="60" height="24" rx="8" fill="#4f46e5"/>
  <rect x="260" y="440" width="900" height="240" rx="14" fill="#eef0ff"/>
  <text x="288" y="476" font-size="14" font-weight="700" fill="#4f46e5">AI SUMMARY</text>
  <rect x="288" y="496" width="840" height="10" rx="5" fill="#c7c9d4"/>
  <rect x="288" y="516" width="800" height="10" rx="5" fill="#c7c9d4"/>
  <rect x="288" y="536" width="820" height="10" rx="5" fill="#c7c9d4"/>
  <rect x="288" y="556" width="600" height="10" rx="5" fill="#c7c9d4"/>
</svg>
