<svg xmlns="http://www.w3.org/2000/svg" width="1200" height="750" viewBox="0 0 1200 750" font-family="system-ui, sans-serif">
  <rect width="1200" height="750" fill="#0e1014"/>
  <rect width="1200" height="56" fill="#16181d"/>
  <circle cx="28" cy="28" r="5" fill="#2a2d35"/><circle cx="48" cy="28" r="5" fill="#2a2d35"/><circle cx="68" cy="28" r="5" fill="#2a2d35"/>
  <text x="96" y="35" font-size="15" font-weight="600" fill="#fff">HarmoniQ</text>
  <rect x="1036" y="14" width="140" height="28" rx="8" fill="#4f46e5"/>
  <text x="1106" y="33" font-size="12" font-weight="600" fill="#fff" text-anchor="middle">Process</text>
  <rect x="48" y="96" width="1104" height="120" rx="12" fill="#16181d"/>
  <text x="72" y="124" font-size="12" font-weight="600" fill="#9aa0aa">Vocals</text>
  <path d="M72 156 q8 -22 16 0 t16 0 t16 0 t16 0 t16 0 t16 0 t16 0 t16 0 t16 0 t16 0 t16 0 t16 0 t16 0 t16 0 t16 0 t16 0 t16 0 t16 0 t16 0 t16 0 t16 0 t16 0 t16 0 t16 0 t16 0 t16 0 t16 0 t16 0 t16 0 t16 0 t16 0 t16 0 t16 0 t16 0 t16 0 t16 0" stroke="#4f46e5" stroke-width="3" fill="none"/>
  <rect x="48" y="232" width="1104" height="120" rx="12" fill="#16181d"/>
  <text x="72" y="260" font-size="12" font-weight="600" fill="#9aa0aa">Drums</text>
  <path d="M72 292 q8 -16 16 0 t16 0 t16 0 t16 0 t16 0 t16 0 t16 0 t16 0 t16 0 t16 0 t16 0 t16 0 t16 0 t16 0 t16 0 t16 0 t16 0 t16 0 t16 0 t16 0 t16 0 t16 0 t16 0 t16 0 t16 0 t16 0 t16 0 t16 0 t16 0 t16 0 t16 0 t16 0 t16 0 t16 0 t16 0" stroke="#7c83ff" stroke-width="3" fill="none"/>
  <rect x="48" y="368" width="1104" height="120" rx="12" fill="#16181d"/>
  <text x="72" y="396" font-size="12" font-weight="600" fill="#9aa0aa">Bass</text>
  <path d="M72 428 q8 -12 16 0 t16 0 t16 0 t16 0 t16 0 t16 0 t16 0 t16 0 t16 0 t16 0 t16 0 t16 0 t16 0 t16 0 t16 0 t16 0 t16 0 t16 0 t16 0 t16 0 t16 0 t16 0 t16 0 t16 0 t16 0 t16 0 t16 0 t16 0 t16 0 t16 0 t16 0 t16 0 t16 0 t16 0" stroke="#4f46e5" stroke-width="3" fill="none"/>
  <rect x="48" y="504" width="1104" height="120" rx="12" fill="#16181d"/>
  <text x="72" y="532" font-size="12" font-weight="600" fill="#9aa0aa">Other</text>
  <path d="M72 564 q8 -18 16 0 t16 0 t16 0 t16 0 t16 0 t16 0 t16 0 t16 0 t16 0 t16 0 t16 0 t16 0 t16 0 t16 0 t16 0 t16 0 t16 0 t16 0 t16 0 t16 0 t16 0 t16 0 t16 0 t16 0 t16 0 t16 0 t16 0 t16 0 t16 0 t16 0 t16 0 t16 0 t16 0 t16 0 t16 0 t16 0" stroke="#7c83ff" stroke-width="3" fill="none"/>
  <rect x="420" y="96" width="2" height="528" fill="#4f46e5" opacity="0.5"/>
  <circle cx="421" cy="96" r="4" fill="#4f46e5"/>
  <circle cx="600" cy="686" r="22" fill="#4f46e5"/>
  <polygon points="594,678 594,694 610,686" fill="#fff"/>
</svg>
